<svg version="1.2" xmlns="http://www.w3.org/2000/svg" viewBox="0 0 832 832" width="832" height="832"><style>.a{fill:#e8433b}</style><path fill-rule="evenodd" class="a" d="m829.8 17.8c-0.3 2.6-1.1 7.4-1.7 10.7-0.6 3.3-1.7 9.4-2.5 13.5-0.8 4.1-3 15.2-4.9 24.5-2 9.4-4.7 22.4-6.1 29-1.4 6.6-3.7 17.4-5.2 24-1.4 6.6-3 13.6-3.4 15.5-0.5 1.9-2.5 11.4-4.4 21-2 9.6-4.5 21.1-5.5 25.5-1.1 4.4-2.2 10.3-2.6 13-0.3 2.8-1 6.6-1.5 8.5-0.5 1.9-1.6 7.3-2.5 12-0.8 4.7-2.7 14.6-4 22-1.4 7.4-3 16-3.5 19-0.6 3-1.5 7.3-2 9.5-0.5 2.2-2.3 11.4-4 20.5-1.7 9.1-3.8 19.4-4.7 23-0.8 3.6-2.1 9.6-2.8 13.5-0.7 3.9-3.1 14.8-5.4 24.3-2.2 9.4-4.7 18.3-5.3 19.7-0.7 1.4-1.8 2.6-2.3 2.6-0.5 0-3-2.9-5.5-6.3-2.5-3.5-10-14.4-16.5-24.3-6.6-9.9-17-25.9-23.2-35.5-6.2-9.6-15.8-24.8-21.5-33.8-5.7-9-10.5-16.3-10.8-16.2-0.3 0-2.5 1.7-5 3.8-2.5 2-13.9 12.7-25.5 23.7-11.5 11-31.7 30.6-45 43.5-13.2 12.9-41.9 41.3-63.9 63-21.9 21.7-74.6 74.2-117 116.6-42.4 42.3-97.2 97.5-121.7 122.5-24.5 25-47.4 48.5-50.9 52.4-3.5 3.9-8.6 9.9-11.5 13.5-2.9 3.6-5.9 7.9-6.7 9.5-0.8 1.6-2 6.1-2.7 10-0.7 3.9-2 9.5-2.8 12.5-0.9 3-1.9 6.2-2.4 7-0.4 0.8-1.8 4.2-3.1 7.5-1.2 3.3-4.7 9.6-7.7 14-2.9 4.4-7.8 10.9-10.8 14.5-3.1 3.6-8.3 8.8-11.7 11.6-3.3 2.8-10.4 7.7-15.6 10.9-5.2 3.1-11.8 6.6-14.5 7.6-2.7 1-9.9 3.1-16 4.8-6.1 1.6-14.6 3.5-19 4.1-4.5 0.7-11.3 1-15.5 0.6-4.1-0.3-11.1-1.5-15.5-2.6-4.4-1.1-9.1-2.5-10.5-3-1.4-0.4-6.5-2.3-11.5-4.1-5-1.8-11-4.4-13.5-5.7-2.5-1.4-7.6-4.6-11.5-7.3-3.9-2.6-10.5-8.1-14.9-12.1-4.4-4.1-10.2-10.8-13.1-15.3-2.9-4.4-7.6-12.3-10.3-17.5-2.8-5.2-5.9-12.4-6.9-16-1.5-5.6-1.8-10.5-1.8-62.5l2.9-8c1.5-4.4 4.8-11.4 7.2-15.5 2.4-4.1 6.8-10.6 9.9-14.5 3.1-3.9 8.4-9.9 11.8-13.4 3.4-3.6 8.9-8.4 12.2-10.9 3.3-2.4 10.3-6.8 15.5-9.7 5.2-2.9 12.4-6.2 16-7.3 3.6-1.2 10.5-2.6 15.5-3.1 5-0.6 13.5-1.1 19-1.1 5.5 0.1 14.5 0.7 20 1.5 5.5 0.7 12.9 2.3 16.5 3.5 3.6 1.2 10.7 3.7 15.8 5.6 5.3 1.9 9.8 3.1 10.6 2.7 0.7-0.5 8.5-7.7 17.2-16.1 8.8-8.5 24-23.3 33.9-33 9.9-9.8 25-24.4 33.5-32.7 8.5-8.2 24.3-23.5 35-34 10.7-10.5 38.6-37.7 62-60.5 23.3-22.8 57.1-55.9 75-73.5 17.8-17.6 46.6-45.9 64-63 17.3-17 49.2-48.5 70.8-70 21.6-21.4 39.2-39.2 39.2-39.5 0.1-0.3-3.7-2.8-8.2-5.6-4.6-2.8-11.4-6.8-15.3-8.9-3.9-2.1-8.8-5.1-11-6.5-2.2-1.5-10.5-6.4-18.5-11-8-4.6-21.8-12.7-30.7-18.2-9-5.4-16.5-9.8-16.8-9.8-0.3 0-6.5-3.9-13.7-8.6-7.3-4.8-13.5-8.8-13.8-9-0.3-0.3 0.2-1 1-1.7 0.8-0.8 4-2.1 7-3 3-0.9 16.5-4.3 30-7.6 13.5-3.3 31-7.5 39-9.5 8-1.9 20.6-4.9 28-6.6 7.4-1.7 17.1-3.9 21.5-5 4.4-1 14.1-3.3 21.5-5 7.4-1.7 17.5-4 22.5-5.2 5-1.1 11.7-2.6 15-3.3 3.3-0.8 11.2-2.5 17.5-4 6.3-1.4 13.3-3 15.5-3.5 2.2-0.5 6.9-1.6 10.5-2.4 3.6-0.8 10.8-2.4 16-3.6 5.2-1.1 19.4-4.2 31.5-6.9 12.1-2.7 26.3-5.9 31.5-7.1 5.2-1.2 9.7-2.3 9.9-2.6 0.2-0.2 38.1-7.1 38.1-7.1zm-734.8 622.3c-2.5 0.5-7 2.6-10 4.7-3 2-7.7 5.9-10.3 8.7-2.7 2.7-5.9 7.2-7.3 10-1.3 2.7-3 7.9-3.9 11.5-0.8 3.6-1.5 8.7-1.5 11.5 0 2.7 0.8 8.4 1.9 12.5 1 4.1 3.2 10.2 4.8 13.5 1.9 3.7 5.1 7.9 8.4 10.9 3 2.6 9 6.5 13.4 8.7 5.1 2.4 10.9 4.3 16 5.2 5.5 0.9 9.6 1 13 0.4 2.8-0.5 7.8-1.8 11.3-2.8 3.4-1 9-3.9 12.5-6.3 3.4-2.5 7.9-6.2 9.9-8.3 2-2.1 4.6-5.8 5.7-8.3 1.1-2.5 2.7-7.2 3.5-10.5 0.9-3.3 1.6-8.8 1.6-12.3 0-3.4-0.7-9.3-1.5-13.2-0.8-3.9-2.5-9.4-3.8-12.3-1.6-3.5-4.4-7-8.8-11-3.5-3.2-9.6-7.3-13.4-9.2-4.5-2.2-9.6-3.8-14.5-4.5-4.1-0.5-8.6-1.2-10-1.4-1.4-0.2-4.7 0.1-7.5 0.6-2.7 0.5-7 1.3-9.5 1.9zm437-132.1h92v116h116l0.3 43.7c0.1 24.1 0.1 44.8-0.3 48.3h-116v116h-92v-116h-58c-31.9 0-58-0.1-58-0.3 0-0.1-0.3-18.2-0.7-40.2-0.3-22-0.3-42.6 0.7-51.5l115.5-0.5z"/></svg>